<?xml version="1.0" standalone="no"?>
<!DOCTYPE svg PUBLIC "-//W3C//DTD SVG 20010904//EN"
 "http://www.w3.org/TR/2001/REC-SVG-20010904/DTD/svg10.dtd">
<svg version="1.0" xmlns="http://www.w3.org/2000/svg"
 width="1200.000000pt" height="628.000000pt" viewBox="0 0 1200.000000 628.000000"
 preserveAspectRatio="xMidYMid meet">

<g transform="translate(0.000000,628.000000) scale(0.100000,-0.100000)"
fill="#b9b9b9" stroke="none">
<path d="M172 3625 l3 -2007 320 -184 c176 -102 339 -197 363 -210 l42 -25 0
2008 -1 2008 -356 205 c-196 113 -360 207 -365 208 -4 2 -7 -899 -6 -2003z"/>
<path d="M7900 5075 l0 -125 -50 0 -50 0 0 -90 0 -90 50 0 50 0 0 -305 0 -305
115 0 115 0 0 305 0 305 55 0 55 0 0 90 0 90 -55 0 -55 0 0 125 0 125 -115 0
-115 0 0 -125z"/>
<path d="M1112 3083 l3 -2007 362 -209 363 -209 1130 653 c621 359 1130 655
1130 658 -1 10 -713 416 -729 415 -9 0 -356 -197 -771 -437 l-755 -436 -5
1581 -5 1581 -335 194 c-184 106 -347 200 -363 209 l-27 15 2 -2008z"/>
<path d="M5023 4956 c-140 -46 -212 -164 -183 -302 10 -47 20 -65 59 -103 47
-48 80 -63 209 -101 60 -17 75 -26 83 -48 28 -72 -72 -120 -133 -65 -10 9 -18
24 -18 35 0 16 -10 18 -110 18 l-110 0 0 -25 c0 -61 64 -153 133 -191 44 -24
66 -29 147 -32 78 -3 105 0 150 17 118 44 180 131 180 251 0 122 -59 181 -238
238 -116 38 -144 62 -124 108 25 54 100 57 122 4 l12 -30 104 0 c103 0 104 0
104 24 0 62 -64 152 -134 188 -52 27 -190 35 -253 14z"/>
<path d="M6719 4956 c-115 -32 -227 -126 -277 -233 -24 -52 -27 -69 -27 -169
0 -107 1 -112 38 -186 43 -89 112 -157 197 -197 49 -23 67 -26 170 -26 109 0
119 2 182 32 88 41 160 113 201 200 40 87 49 210 22 294 -69 215 -296 342
-506 285z m196 -239 c57 -32 99 -114 91 -180 -7 -60 -29 -100 -79 -141 -34
-27 -46 -31 -101 -31 -49 0 -70 5 -97 24 -124 85 -115 267 16 335 44 23 122
20 170 -7z"/>
<path d="M8445 4952 c-66 -22 -149 -101 -164 -157 -6 -22 -11 -65 -11 -96 0
-115 70 -187 229 -235 110 -33 131 -46 131 -84 0 -34 -20 -56 -59 -65 -39 -8
-89 18 -97 50 -6 25 -7 25 -115 25 -122 0 -119 3 -92 -75 23 -68 93 -137 162
-160 76 -25 218 -18 281 14 93 48 147 122 157 216 14 131 -62 211 -250 266
-92 26 -119 48 -115 92 6 64 98 77 121 17 l11 -30 108 0 108 0 -6 33 c-10 54
-44 115 -81 146 -71 59 -213 78 -318 43z"/>
<path d="M5919 4950 c-53 -9 -94 -29 -138 -66 l-31 -26 0 46 0 46 -110 0 -110
0 0 -525 0 -525 115 0 115 0 0 170 0 170 45 -35 c59 -45 112 -58 206 -53 137
8 251 86 321 219 32 62 33 68 33 179 0 110 -2 118 -33 182 -77 158 -248 248
-413 218z m99 -225 c71 -30 121 -102 122 -175 0 -48 -37 -117 -82 -153 -65
-52 -172 -49 -235 6 -45 39 -63 82 -63 146 0 61 13 97 48 135 52 55 136 71
210 41z"/>
<path d="M7655 4945 c-22 -8 -57 -32 -77 -54 l-38 -40 0 49 0 50 -110 0 -110
0 0 -395 0 -395 120 0 120 0 1 233 c0 153 4 244 12 266 16 46 55 73 116 79
l51 5 0 108 c0 123 0 124 -85 94z"/>
<path d="M4870 3715 l0 -95 120 0 121 0 -3 93 -3 92 -117 3 -118 3 0 -96z"/>
<path d="M9460 3680 l0 -130 -50 0 -50 0 0 -90 0 -90 50 0 50 0 0 -305 0 -305
120 0 120 0 0 305 0 305 50 0 50 0 0 90 0 90 -50 0 -50 0 0 130 0 130 -120 0
-120 0 0 -130z"/>
<path d="M9870 3715 l0 -95 115 0 115 0 0 95 0 95 -115 0 -115 0 0 -95z"/>
<path d="M5608 3557 c-49 -14 -62 -22 -117 -71 l-33 -31 5 48 5 47 -114 0
-114 0 0 -395 0 -395 115 0 115 0 0 223 c0 122 4 239 9 260 18 77 91 118 170
97 67 -18 71 -38 71 -329 l0 -251 121 0 120 0 -3 303 c-3 293 -4 304 -27 355
-26 57 -73 104 -126 127 -52 21 -143 27 -197 12z"/>
<path d="M6475 3564 c-64 -16 -93 -31 -132 -67 l-43 -40 0 47 0 46 -110 0
-110 0 0 -395 0 -395 115 0 115 0 0 235 c0 258 7 297 58 331 37 25 124 24 151
0 35 -32 41 -81 41 -329 l0 -238 118 3 117 3 -1 295 c-1 319 -4 344 -59 416
-45 59 -186 106 -260 88z"/>
<path d="M7165 3553 c-120 -43 -205 -119 -256 -227 -94 -200 -3 -450 200 -549
62 -30 73 -32 176 -32 103 0 114 2 178 32 265 126 326 465 120 671 -79 79
-164 115 -278 119 -67 3 -103 -1 -140 -14z m183 -216 c42 -16 91 -63 108 -104
18 -41 18 -114 0 -156 -18 -44 -77 -94 -127 -107 -131 -35 -253 95 -218 233
27 108 137 170 237 134z"/>
<path d="M10495 3556 c-202 -64 -329 -260 -296 -458 59 -359 490 -485 729
-213 194 220 96 569 -186 664 -70 24 -184 27 -247 7z m217 -241 c108 -72 106
-250 -3 -322 -79 -52 -193 -28 -249 53 -16 25 -25 54 -28 94 -12 163 148 262
280 175z"/>
<path d="M11487 3559 c-53 -12 -97 -37 -129 -72 l-28 -29 0 46 0 46 -110 0
-110 0 0 -395 0 -395 115 0 114 0 3 254 c3 240 4 256 24 283 45 61 156 66 198
10 20 -27 21 -43 24 -288 l3 -259 115 0 115 0 -3 313 -3 312 -29 52 c-34 61
-86 101 -158 120 -58 15 -86 15 -141 2z"/>
<path d="M8708 3536 c-175 -72 -278 -255 -248 -442 18 -113 68 -194 164 -268
59 -45 131 -68 214 -68 87 0 138 14 190 52 l42 30 0 -40 0 -40 115 0 115 0 0
395 0 395 -120 0 -120 0 0 -36 0 -35 -35 27 c-51 39 -101 53 -185 53 -56 0
-89 -5 -132 -23z m249 -197 c88 -33 139 -159 102 -256 -36 -96 -154 -140 -254
-94 -185 84 -130 361 72 361 28 0 64 -5 80 -11z"/>
<path d="M4870 3155 l0 -395 120 0 120 0 0 395 0 395 -120 0 -120 0 0 -395z"/>
<path d="M7683 3536 c3 -8 64 -178 136 -378 71 -200 132 -371 136 -380 6 -16
22 -18 125 -18 l117 0 142 389 c77 213 141 391 141 395 0 3 -55 6 -123 6
l-123 0 -74 -245 c-41 -135 -77 -242 -81 -237 -4 4 -37 114 -74 245 l-68 237
-129 0 c-110 0 -129 -2 -125 -14z"/>
<path d="M9870 3155 l0 -395 115 0 115 0 0 395 0 395 -115 0 -115 0 0 -395z"/>
<path d="M2243 2817 l-193 -112 0 -422 c0 -233 2 -423 4 -423 13 0 1108 638
1108 646 1 8 -710 424 -722 423 -3 0 -92 -51 -197 -112z"/>
<path d="M4870 1885 l0 -526 118 3 117 3 3 523 2 522 -120 0 -120 0 0 -525z"/>
<path d="M6170 1885 l0 -526 113 3 112 3 3 36 3 37 56 -34 c63 -38 118 -49
208 -42 265 22 429 328 308 578 -32 67 -122 158 -183 188 -122 58 -263 49
-349 -24 l-31 -26 0 166 0 166 -120 0 -120 0 0 -525z m508 48 c75 -36 118
-141 92 -226 -27 -93 -141 -154 -237 -128 -84 23 -133 90 -133 182 0 153 138
238 278 172z"/>
<path d="M5514 2160 c-112 -23 -226 -116 -280 -225 -27 -56 -29 -68 -29 -175
0 -106 2 -120 28 -172 64 -129 181 -215 310 -225 92 -8 147 3 210 41 l56 34 3
-37 3 -36 113 -3 112 -3 0 401 0 400 -115 0 -115 0 0 -47 0 -47 -32 32 c-18
17 -49 38 -68 46 -46 19 -144 27 -196 16z m204 -227 c71 -34 111 -136 87 -225
-15 -60 -54 -102 -113 -125 -38 -14 -53 -15 -99 -5 -121 25 -184 125 -152 239
32 117 161 171 277 116z"/>
</g>
</svg>
