<?xml version="1.0" standalone="no"?>
<!DOCTYPE svg PUBLIC "-//W3C//DTD SVG 20010904//EN"
 "http://www.w3.org/TR/2001/REC-SVG-20010904/DTD/svg10.dtd">
<svg version="1.0" xmlns="http://www.w3.org/2000/svg"
 width="646.000000pt" height="220.000000pt" viewBox="0 0 646.000000 220.000000"
 preserveAspectRatio="xMidYMid meet">

<g transform="translate(0.000000,220.000000) scale(0.100000,-0.100000)"
fill="#b9b9b9" stroke="none">
<path d="M112 1484 l-22 -15 0 -369 0 -369 22 -15 c19 -13 59 -16 234 -16
l213 0 20 26 c26 33 26 45 0 78 l-20 26 -170 0 -169 0 0 315 c0 302 -1 316
-20 335 -24 24 -57 26 -88 4z"/>
<path d="M2952 1484 l-22 -15 0 -369 0 -369 22 -15 c19 -13 58 -16 226 -16
202 0 203 0 227 25 14 13 25 31 25 40 0 9 -11 27 -25 40 -24 25 -27 25 -190
25 l-165 0 0 315 c0 302 -1 316 -20 335 -24 24 -48 25 -78 4z"/>
<path d="M5910 1480 c-19 -19 -20 -33 -20 -378 0 -271 3 -362 13 -375 20 -27
60 -31 88 -9 23 20 24 25 29 184 3 100 10 171 17 184 31 53 116 74 168 40 54
-35 60 -57 63 -233 4 -153 5 -164 25 -178 29 -21 53 -19 78 6 20 20 20 29 17
197 -3 158 -5 181 -25 217 -57 107 -185 160 -296 122 l-45 -15 -4 110 c-3 101
-5 111 -27 129 -30 24 -56 24 -81 -1z"/>
<path d="M755 1247 c-212 -101 -218 -406 -11 -515 44 -23 63 -27 136 -27 73 0
92 4 137 28 65 34 87 64 74 100 -15 39 -48 42 -111 13 -65 -31 -110 -32 -167
-6 -37 16 -83 68 -83 93 0 4 84 7 188 7 216 0 232 5 232 69 0 89 -55 179 -137
228 -37 22 -61 27 -127 30 -70 4 -88 1 -131 -20z m192 -108 c41 -20 93 -70 93
-90 0 -5 -69 -9 -160 -9 -88 0 -160 3 -160 8 0 24 46 76 83 92 54 25 91 25
144 -1z"/>
<path d="M1345 1247 c-56 -27 -116 -88 -141 -144 -27 -60 -24 -176 5 -241 29
-65 95 -125 163 -148 60 -19 148 -15 197 10 30 16 33 16 58 -4 32 -25 65 -26
86 -2 15 16 17 50 17 270 0 214 -2 253 -16 266 -21 22 -64 20 -89 -4 -21 -20
-23 -20 -56 -3 -20 10 -63 19 -104 21 -57 2 -79 -1 -120 -21z m195 -126 c62
-45 84 -148 46 -219 -39 -74 -153 -98 -217 -45 -60 51 -75 133 -38 209 37 78
141 105 209 55z"/>
<path d="M1886 1248 c-13 -19 -16 -62 -16 -265 0 -230 1 -244 20 -263 11 -11
31 -20 45 -20 14 0 34 9 45 20 18 18 20 34 20 143 0 97 4 130 19 163 27 59 82
110 128 118 77 15 103 54 67 104 -12 17 -25 22 -57 22 -49 -1 -110 -21 -138
-46 -11 -10 -19 -12 -19 -6 0 22 -40 52 -69 52 -20 0 -35 -8 -45 -22z"/>
<path d="M2307 1252 c-15 -16 -17 -50 -17 -270 0 -248 0 -251 22 -266 33 -23
64 -19 87 10 19 25 21 40 21 191 l0 165 28 28 c37 37 89 47 131 26 59 -31 65
-52 71 -240 l5 -170 28 -16 c24 -13 30 -13 55 0 l27 16 3 174 c2 101 -1 190
-7 210 -15 50 -72 114 -126 139 -52 25 -139 28 -188 7 -28 -11 -36 -11 -52 0
-26 20 -69 17 -88 -4z"/>
<path d="M3620 1261 c-115 -35 -200 -152 -200 -276 0 -120 83 -237 190 -269
70 -21 98 -20 170 4 l60 20 29 -21 c34 -25 64 -19 87 16 13 19 15 61 12 265
-3 226 -4 243 -22 256 -27 19 -56 18 -80 -5 -21 -19 -22 -19 -76 -1 -57 20
-126 24 -170 11z m159 -140 c96 -68 84 -228 -20 -281 -21 -11 -50 -20 -64 -20
-114 0 -188 134 -133 240 32 63 80 93 139 87 26 -2 60 -14 78 -26z"/>
<path d="M4117 1252 c-15 -16 -17 -45 -17 -194 0 -173 0 -177 28 -229 34 -66
87 -105 164 -121 49 -10 65 -9 110 5 65 20 121 65 151 120 20 38 22 59 25 219
3 168 3 177 -17 197 -26 26 -62 27 -84 3 -14 -16 -17 -43 -17 -171 0 -199 -17
-239 -107 -257 -37 -7 -98 19 -116 50 -7 13 -14 85 -17 194 -5 157 -7 175 -24
188 -27 19 -60 18 -79 -4z"/>
<path d="M4716 1248 c-13 -19 -16 -62 -16 -265 0 -230 1 -244 20 -263 24 -24
48 -25 77 -5 20 14 22 24 25 191 l3 176 39 35 c35 32 42 35 83 30 33 -3 54
-13 77 -36 l31 -31 5 -175 c3 -117 9 -178 17 -186 19 -19 74 -15 89 6 20 27
19 314 -1 382 -16 53 -65 112 -117 139 -47 25 -128 29 -184 10 -42 -14 -49
-14 -64 -1 -25 22 -66 19 -84 -7z"/>
<path d="M5474 1252 c-70 -25 -124 -71 -160 -134 -25 -46 -29 -63 -29 -133 0
-92 19 -137 82 -196 64 -61 117 -83 203 -83 63 -1 85 4 133 28 66 32 87 62 69
101 -17 37 -52 41 -114 11 -65 -31 -98 -32 -153 -7 -107 48 -136 164 -62 248
59 68 134 80 219 37 58 -30 93 -26 110 11 40 88 -160 167 -298 117z"/>
</g>
</svg>
