<?xml version="1.0" standalone="no"?>
<!DOCTYPE svg PUBLIC "-//W3C//DTD SVG 20010904//EN"
 "http://www.w3.org/TR/2001/REC-SVG-20010904/DTD/svg10.dtd">
<svg version="1.0" xmlns="http://www.w3.org/2000/svg"
 width="380.000000pt" height="380.000000pt" viewBox="0 0 380.000000 380.000000"
 preserveAspectRatio="xMidYMid meet">
<metadata>
Created by potrace 1.11, written by Peter Selinger 2001-2013
</metadata>
<g transform="translate(0.000000,380.000000) scale(0.100000,-0.100000)"
fill="#000000" stroke="none">
<path d="M1738 3795 c-2 -2 -37 -6 -78 -9 -41 -3 -86 -8 -100 -11 -14 -3 -46
-10 -71 -15 -276 -55 -555 -192 -789 -388 -398 -335 -635 -756 -687 -1227 -10
-89 -10 -410 0 -495 49 -413 228 -771 541 -1086 323 -324 676 -499 1111 -552
73 -9 424 -9 480 0 101 16 215 39 239 48 14 5 26 8 26 5 0 -10 213 70 309 117
238 114 476 304 664 528 122 146 256 388 320 580 70 210 92 357 92 615 0 196
-9 279 -44 440 -85 381 -319 748 -656 1032 -235 198 -588 361 -865 398 -25 4
-56 8 -70 11 -29 5 -417 13 -422 9z"/>
</g>
</svg>
