<?xml version="1.0" standalone="no"?>
<!DOCTYPE svg PUBLIC "-//W3C//DTD SVG 20010904//EN"
 "http://www.w3.org/TR/2001/REC-SVG-20010904/DTD/svg10.dtd">
<svg version="1.0" xmlns="http://www.w3.org/2000/svg"
 width="1000.000000pt" height="500.000000pt" viewBox="0 0 1000.000000 500.000000"
 preserveAspectRatio="xMidYMid meet">

<g transform="translate(0.000000,500.000000) scale(0.100000,-0.100000)"
fill="#b9b9b9" stroke="none">
<path d="M1359 4921 c-119 -25 -233 -173 -260 -337 -21 -132 26 -285 118 -379
65 -66 130 -95 214 -95 87 0 148 22 209 77 217 195 174 599 -76 718 -40 19
-152 28 -205 16z"/>
<path d="M2329 4503 c-162 -240 -467 -434 -819 -522 -47 -11 -155 -32 -240
-46 -197 -33 -295 -62 -428 -131 -246 -126 -449 -344 -583 -630 -53 -111 -124
-312 -115 -322 3 -3 7 -3 9 -1 54 83 91 130 141 177 164 153 439 284 746 356
63 15 165 38 225 52 278 66 494 185 689 380 122 122 211 249 301 429 67 134
141 323 131 333 -3 2 -28 -32 -57 -75z"/>
<path d="M6044 3973 c-4 -16 -18 -71 -31 -123 -38 -144 -37 -136 -16 -144 19
-8 21 -6 76 79 50 78 81 89 262 89 l150 1 3 -455 c2 -250 0 -483 -3 -518 -9
-89 -32 -113 -116 -121 -57 -5 -64 -9 -67 -29 l-3 -22 258 2 c250 3 258 4 258
23 0 17 -9 21 -55 26 -69 8 -87 16 -103 43 -9 15 -13 149 -15 505 -2 266 -1
498 3 517 l6 34 122 0 c141 0 229 -18 263 -51 12 -13 29 -49 36 -79 10 -44 17
-55 33 -55 18 0 21 11 31 122 7 68 15 134 18 148 8 33 -18 34 -52 3 l-24 -23
-451 -3 c-473 -3 -520 0 -532 38 -10 30 -43 25 -51 -7z"/>
<path d="M4315 3964 c-157 -33 -255 -84 -356 -184 -121 -121 -181 -267 -182
-445 -1 -117 16 -191 63 -290 87 -181 254 -299 470 -334 144 -24 277 -4 410
61 103 50 217 159 268 255 88 167 97 416 21 588 -100 226 -314 357 -578 354
-53 -1 -105 -3 -116 -5z m243 -82 c196 -75 313 -293 315 -587 1 -128 -14 -206
-54 -291 -102 -217 -342 -299 -566 -195 -126 60 -231 208 -270 382 -22 102
-22 294 1 378 46 170 162 293 312 331 59 14 201 5 262 -18z"/>
<path d="M5467 3959 c-171 -40 -285 -204 -249 -359 29 -125 89 -193 287 -324
188 -125 225 -174 225 -296 0 -76 -16 -115 -67 -162 -77 -69 -211 -73 -313
-10 -54 33 -112 107 -138 176 -14 37 -25 52 -41 54 -19 3 -21 -1 -21 -45 1
-55 32 -209 47 -224 17 -17 125 -50 204 -62 140 -20 284 16 372 92 20 18 51
61 68 96 29 60 31 69 27 157 -2 79 -7 102 -33 151 -36 73 -117 148 -229 216
-199 121 -256 186 -256 294 0 136 87 207 237 194 34 -4 75 -13 90 -21 45 -23
92 -79 112 -132 15 -39 24 -49 42 -49 23 0 24 3 21 65 -2 36 -9 87 -15 115
l-13 49 -80 18 c-84 18 -214 22 -277 7z"/>
<path d="M7644 3950 c-224 -59 -400 -231 -460 -450 -24 -90 -24 -264 0 -345
31 -105 85 -195 160 -270 80 -79 157 -124 266 -155 438 -123 841 170 840 612
-1 312 -187 552 -476 613 -96 20 -243 18 -330 -5z m330 -84 c188 -91 286 -290
286 -578 0 -131 -17 -213 -61 -299 -103 -206 -350 -284 -559 -179 -108 55
-181 140 -235 274 -55 139 -69 355 -32 491 35 127 117 234 220 286 80 41 119
49 221 44 76 -3 98 -9 160 -39z"/>
<path d="M2827 3941 c-86 -5 -121 -11 -127 -21 -13 -20 7 -40 40 -40 46 0 91
-21 101 -47 5 -14 9 -234 9 -507 0 -470 -1 -484 -20 -509 -14 -18 -34 -28 -65
-32 -41 -7 -62 -26 -49 -46 9 -15 549 -11 625 5 192 41 301 162 302 335 1 151
-82 263 -225 306 -23 6 -43 16 -44 21 -2 5 23 25 56 46 100 63 143 176 110
296 -22 84 -113 156 -230 182 -67 14 -322 21 -483 11z m394 -71 c84 -23 140
-85 159 -176 21 -100 -15 -201 -87 -241 -47 -26 -149 -45 -223 -41 l-55 3 -3
219 c-2 147 1 223 9 232 20 24 115 26 200 4z m24 -535 c146 -39 224 -136 225
-285 0 -92 -16 -138 -64 -186 -49 -50 -120 -74 -215 -74 -80 0 -127 21 -156
70 -18 32 -20 56 -23 249 -3 197 -2 216 14 228 25 18 146 17 219 -2z"/>
<path d="M8464 3941 c-2 -2 -4 -12 -4 -22 0 -13 10 -20 38 -24 67 -11 117 -40
136 -80 16 -33 17 -77 14 -498 -3 -324 -7 -470 -15 -489 -12 -26 -51 -44 -113
-50 -17 -2 -25 -9 -25 -23 0 -19 8 -20 213 -23 l213 -2 -3 22 c-3 20 -11 24
-63 30 -72 9 -91 26 -105 93 -14 65 -25 749 -13 794 l9 34 124 -145 c69 -80
251 -289 405 -464 154 -176 294 -337 310 -357 22 -28 35 -36 48 -32 16 7 17
42 17 531 0 542 5 615 40 634 10 5 42 15 70 21 43 9 51 14 48 31 -3 20 -10 21
-213 21 -194 0 -210 -1 -213 -18 -5 -22 14 -35 51 -35 50 0 93 -25 106 -61 25
-69 43 -739 22 -793 -6 -16 -46 23 -241 240 -308 343 -433 489 -500 585 l-55
79 -148 3 c-82 1 -150 0 -153 -2z"/>
<path d="M1230 3243 c-286 -48 -565 -217 -761 -461 -179 -222 -279 -458 -346
-812 -28 -152 -25 -501 6 -687 13 -79 26 -143 30 -143 3 0 28 87 55 193 118
469 251 778 442 1034 201 268 436 440 699 510 89 24 118 27 265 27 133 0 185
-4 266 -22 207 -45 413 -129 646 -263 67 -38 123 -68 125 -65 13 13 -213 255
-327 350 -286 238 -578 348 -923 345 -84 -1 -163 -4 -177 -6z"/>
<path d="M2805 2399 c-44 -17 -84 -35 -90 -40 -7 -7 3 -22 30 -44 l40 -34 2
-507 c1 -278 4 -509 7 -512 3 -3 14 2 25 12 17 15 22 16 66 1 122 -42 235 -39
340 9 179 82 255 320 158 498 -32 60 -70 93 -142 126 -76 35 -188 34 -266 -2
-48 -21 -57 -23 -62 -10 -3 8 -4 132 -1 275 4 230 2 259 -11 258 -9 0 -52 -14
-96 -30z m309 -550 c57 -16 121 -80 147 -147 28 -76 24 -225 -9 -288 -71 -138
-252 -155 -320 -31 -13 26 -17 66 -20 217 -2 113 0 196 7 212 16 43 110 61
195 37z"/>
<path d="M3595 2405 c-27 -13 -57 -24 -66 -24 -8 -1 -24 -8 -35 -16 -18 -15
-18 -16 21 -50 l40 -34 0 -465 c0 -514 4 -486 -65 -503 -24 -7 -35 -15 -35
-28 0 -18 10 -19 165 -19 154 0 165 1 165 19 0 13 -12 21 -44 29 -37 9 -46 16
-53 41 -5 17 -8 264 -7 550 1 591 9 545 -86 500z"/>
<path d="M6860 2420 c-8 -5 -43 -19 -77 -31 -35 -11 -66 -25 -70 -32 -3 -6 10
-24 30 -41 l37 -31 0 -471 c0 -520 4 -490 -65 -501 -29 -5 -35 -10 -33 -26 3
-19 10 -20 163 -21 154 0 160 1 163 21 3 17 -4 21 -38 27 -31 5 -43 12 -50 32
-6 14 -10 116 -10 228 0 189 1 204 20 224 51 54 152 72 219 38 60 -32 71 -73
71 -292 0 -210 -2 -217 -60 -232 -24 -6 -35 -14 -35 -27 0 -17 12 -18 165 -19
157 -1 165 0 165 19 0 14 -10 21 -39 27 -22 5 -45 13 -52 19 -9 7 -13 71 -16
232 -3 202 -5 226 -25 268 -31 70 -90 101 -188 102 -65 0 -82 -4 -142 -34 -37
-19 -72 -36 -76 -37 -4 -2 -7 124 -6 280 1 268 0 283 -18 286 -10 1 -25 -2
-33 -8z"/>
<path d="M9150 2420 c-8 -5 -43 -19 -77 -31 -35 -11 -66 -25 -70 -32 -3 -6 10
-24 30 -41 l37 -31 0 -471 c0 -520 4 -490 -65 -501 -29 -5 -35 -10 -33 -26 3
-20 9 -21 168 -21 156 0 165 1 165 19 0 15 -10 21 -43 28 -33 6 -45 14 -53 34
-5 15 -9 236 -9 552 1 498 0 526 -17 529 -10 1 -25 -2 -33 -8z"/>
<path d="M5595 2356 c-61 -19 -96 -41 -137 -83 -50 -52 -70 -103 -70 -184 0
-129 55 -203 240 -325 65 -42 130 -88 145 -103 84 -77 100 -214 35 -297 -45
-57 -156 -80 -252 -52 -57 17 -136 98 -166 171 -17 40 -29 57 -42 57 -14 0
-18 -8 -18 -39 0 -50 27 -180 41 -197 17 -21 130 -54 206 -61 234 -20 397 105
397 304 -1 60 -6 82 -33 137 -37 76 -87 123 -215 203 -134 83 -175 119 -202
177 -27 58 -28 74 -13 131 16 58 64 100 129 114 117 25 221 -28 257 -131 14
-39 22 -48 38 -46 18 3 20 10 17 67 -1 35 -7 81 -12 102 -10 36 -12 38 -80 53
-82 19 -209 20 -265 2z"/>
<path d="M1125 2342 c-31 -6 -40 -11 -40 -27 0 -14 8 -21 25 -23 51 -5 98 -23
106 -40 11 -22 18 -721 9 -820 -8 -88 -23 -108 -90 -117 -39 -6 -46 -11 -43
-28 3 -20 8 -21 213 -21 206 -1 210 0 213 21 3 18 -3 21 -51 27 -100 13 -92
-30 -95 497 -2 302 1 466 8 473 17 17 145 9 192 -12 111 -49 164 -191 123
-330 -9 -28 -28 -65 -42 -83 -27 -32 -133 -89 -165 -89 -22 0 -33 -19 -19 -33
17 -17 146 5 218 37 114 52 175 143 175 266 0 134 -78 238 -210 282 -59 19
-92 22 -277 24 -115 1 -228 -1 -250 -4z"/>
<path d="M3970 2283 c-34 -13 -60 -47 -60 -80 0 -48 14 -70 53 -82 63 -21 116
15 116 79 0 62 -53 103 -109 83z"/>
<path d="M3968 1917 c-48 -23 -88 -47 -88 -53 0 -5 14 -23 30 -39 l30 -29 0
-219 c0 -131 -4 -226 -10 -238 -7 -11 -26 -21 -51 -25 -33 -6 -39 -10 -37 -27
3 -19 10 -20 163 -21 150 0 160 1 160 19 0 13 -10 21 -35 27 -19 5 -41 17 -47
26 -10 12 -13 92 -13 319 0 167 -3 303 -7 302 -5 0 -47 -20 -95 -42z"/>
<path d="M4575 1929 c-127 -19 -230 -94 -284 -208 -22 -48 -26 -69 -26 -151 0
-78 4 -104 24 -148 68 -150 261 -219 417 -148 93 43 166 128 135 159 -9 9 -19
4 -43 -22 -111 -118 -308 -81 -383 73 -57 116 -40 244 43 327 37 36 58 49 98
57 72 16 142 -7 193 -62 32 -34 56 -33 71 3 20 49 -2 98 -48 110 -62 15 -134
19 -197 10z"/>
<path d="M6396 1929 c-129 -19 -243 -104 -287 -216 -35 -88 -33 -218 4 -295
69 -142 239 -207 397 -154 90 31 190 146 150 171 -6 4 -28 -11 -48 -32 -111
-114 -305 -67 -382 92 -28 59 -32 178 -8 235 65 151 241 189 347 76 29 -31 56
-33 71 -7 26 49 2 107 -49 120 -61 15 -133 19 -195 10z"/>
<path d="M7757 1930 c-109 -19 -208 -96 -255 -198 -21 -47 -26 -72 -26 -147
-1 -77 3 -98 25 -145 51 -109 129 -168 247 -190 76 -13 153 -2 229 35 59 30
101 74 141 148 25 48 27 61 27 162 0 100 -2 115 -27 160 -26 50 -81 108 -128
137 -57 35 -156 51 -233 38z m148 -85 c128 -97 137 -428 14 -515 -92 -66 -216
-19 -270 103 -31 72 -39 222 -14 299 35 106 92 151 182 145 37 -3 62 -11 88
-32z"/>
<path d="M8511 1929 c-109 -18 -199 -90 -250 -198 -22 -48 -26 -70 -26 -151 0
-85 3 -101 29 -153 36 -70 89 -120 164 -155 45 -20 70 -25 136 -25 148 1 257
67 314 191 37 81 43 204 12 284 -56 150 -211 235 -379 207z m129 -69 c97 -49
149 -221 116 -379 -25 -120 -83 -181 -170 -181 -124 0 -208 124 -208 305 1 95
16 154 53 207 48 67 133 87 209 48z"/>
<path d="M9585 1931 c-82 -14 -145 -68 -165 -141 -23 -86 27 -166 148 -238 92
-55 123 -90 129 -146 5 -40 2 -48 -25 -76 -24 -24 -39 -30 -72 -30 -72 0 -128
45 -165 134 -11 26 -21 36 -33 34 -14 -3 -17 -14 -16 -56 3 -102 10 -118 61
-143 69 -33 189 -31 260 4 90 46 125 117 102 210 -15 63 -67 117 -167 176 -86
50 -112 81 -112 133 0 115 163 120 220 8 14 -28 27 -40 38 -38 40 8 17 134
-28 154 -33 15 -125 23 -175 15z"/>
<path d="M2045 1920 c-16 -4 -47 -8 -68 -9 -44 -1 -63 -28 -32 -45 55 -32 55
-31 55 -248 0 -112 5 -221 10 -242 20 -88 83 -130 194 -129 59 0 78 5 147 40
43 22 81 38 84 35 3 -3 5 -25 5 -49 0 -48 1 -49 61 -28 23 9 72 22 108 31 67
15 83 27 74 51 -4 11 -16 13 -43 8 -75 -13 -84 30 -79 374 l4 223 -50 -7 c-27
-4 -75 -10 -105 -14 -67 -7 -75 -31 -20 -59 20 -10 37 -27 41 -42 12 -42 10
-364 -2 -399 -24 -69 -158 -108 -235 -68 -57 30 -64 66 -64 342 l0 245 -27 -1
c-16 -1 -41 -5 -58 -9z"/>
<path d="M1083 974 c-15 -7 -17 -50 -3 -59 13 -8 2438 22 2428 30 -2 1 -484 8
-1073 14 -588 6 -1131 13 -1205 15 -74 3 -141 2 -147 0z"/>
<path d="M7581 960 l-44 -20 21 -23 c21 -23 22 -31 22 -274 l0 -251 -32 -11
c-53 -19 -20 -32 72 -29 56 2 85 7 88 16 2 7 -5 12 -17 12 -32 0 -41 31 -41
143 0 90 3 106 19 121 31 28 92 32 121 8 24 -19 25 -25 25 -139 0 -113 -1
-118 -22 -128 -13 -5 -23 -16 -23 -23 0 -18 171 -13 178 6 2 7 -5 12 -15 12
-37 0 -43 20 -43 137 0 161 -19 193 -117 193 -29 0 -63 -8 -86 -20 l-37 -20 0
155 c0 117 -3 155 -12 155 -7 0 -33 -9 -57 -20z"/>
<path d="M8266 964 c-52 -19 -53 -20 -28 -47 22 -23 22 -28 20 -273 l-3 -249
-28 -13 c-46 -22 -18 -33 73 -30 56 2 85 7 88 16 2 7 -5 12 -15 12 -41 0 -43
12 -43 312 0 224 -3 288 -12 287 -7 0 -31 -7 -52 -15z"/>
<path d="M8711 960 l-44 -20 21 -23 c19 -20 22 -35 22 -114 l0 -91 -74 -4
c-63 -3 -81 -8 -117 -33 -107 -76 -112 -233 -9 -302 40 -27 125 -31 170 -8 27
14 29 14 32 -8 2 -12 5 -22 8 -21 77 11 130 27 130 41 0 11 -6 14 -25 9 -18
-5 -27 -1 -35 13 -6 12 -10 125 -10 300 0 218 -3 281 -12 281 -7 0 -33 -9 -57
-20z m-23 -300 c20 -19 22 -31 22 -129 0 -125 -6 -136 -77 -136 -38 0 -49 5
-78 37 -59 64 -59 156 0 215 40 40 98 46 133 13z"/>
<path d="M7165 927 c-68 -23 -121 -54 -153 -92 -58 -66 -67 -91 -67 -196 0
-89 2 -99 30 -144 38 -62 101 -110 167 -130 61 -18 200 -20 265 -4 39 10 48
18 64 53 20 44 25 86 10 86 -5 0 -19 -16 -31 -35 -83 -134 -311 -105 -393 50
-31 59 -31 213 0 272 47 87 139 131 251 120 64 -7 99 -29 127 -80 32 -59 48
-49 40 26 -4 34 -11 66 -15 71 -14 15 -251 17 -295 3z"/>
<path d="M3860 921 c0 -5 14 -14 30 -20 l30 -10 -2 -248 -3 -248 -33 -10 c-62
-18 -28 -30 88 -30 82 0 114 3 118 13 2 7 -6 12 -22 12 -14 0 -35 9 -46 20
-17 17 -20 33 -20 125 l0 106 83 -3 c82 -3 82 -3 96 -35 26 -58 38 -40 38 57
0 63 -4 90 -12 90 -7 0 -16 -15 -21 -32 l-10 -33 -87 -3 -87 -3 0 116 0 115
81 0 c94 0 115 -9 135 -56 20 -47 34 -34 34 32 l0 54 -195 0 c-109 0 -195 -4
-195 -9z"/>
<path d="M8040 890 c-25 -25 -25 -42 0 -65 45 -40 105 20 65 65 -23 25 -40 25
-65 0z"/>
<path d="M8053 707 c-44 -22 -54 -40 -28 -51 13 -5 15 -26 13 -133 -3 -122 -4
-128 -25 -138 -13 -5 -23 -15 -23 -22 0 -10 23 -13 85 -13 62 0 85 3 85 13 0
7 -10 17 -22 22 -22 10 -23 15 -26 178 -1 92 -6 167 -10 166 -4 0 -26 -10 -49
-22z"/>
<path d="M6408 699 c-41 -21 -47 -33 -23 -43 13 -5 15 -27 13 -138 -3 -130 -3
-133 -26 -136 -13 -2 -21 -9 -19 -15 5 -16 169 -16 174 -1 2 7 -8 14 -22 18
l-25 6 0 119 c0 133 7 147 73 158 29 4 40 1 61 -20 25 -25 26 -31 26 -141 0
-115 0 -116 -25 -122 -14 -4 -24 -11 -22 -18 5 -16 169 -15 175 2 2 7 -5 12
-15 12 -37 0 -43 19 -43 146 0 117 -1 124 -26 153 -22 27 -32 31 -75 31 -30 0
-65 -8 -89 -20 l-40 -20 0 25 c0 31 -20 32 -72 4z"/>
<path d="M8938 702 c-41 -18 -47 -32 -23 -52 13 -11 15 -35 13 -134 -3 -115
-4 -122 -25 -131 -13 -5 -23 -16 -23 -23 0 -18 181 -13 188 6 2 7 -6 12 -20
12 -13 0 -29 5 -36 12 -15 15 -16 211 -2 239 12 21 41 25 70 9 24 -13 48 -4
55 21 15 47 -51 66 -98 29 -33 -26 -37 -25 -37 5 0 29 -10 30 -62 7z"/>
<path d="M9573 700 c-24 -10 -43 -21 -43 -25 0 -3 9 -14 20 -25 17 -17 20 -33
20 -119 0 -114 -10 -151 -41 -151 -12 0 -19 -5 -16 -12 5 -17 169 -18 174 -2
2 7 -8 14 -22 18 l-25 6 0 119 c0 133 7 147 73 158 29 4 40 1 61 -20 25 -25
26 -31 26 -141 0 -115 0 -116 -25 -122 -14 -4 -24 -11 -22 -18 5 -16 169 -15
175 2 2 7 -5 12 -17 12 -32 0 -41 31 -41 150 0 150 -17 179 -103 180 -29 0
-64 -8 -87 -20 l-40 -20 0 25 c0 30 -11 31 -67 5z"/>
<path d="M4395 699 c-33 -19 -76 -62 -91 -91 -23 -44 -18 -139 9 -179 38 -56
81 -79 149 -79 73 0 120 21 156 68 22 29 27 48 30 106 3 61 1 76 -20 105 -39
58 -71 75 -146 78 -38 2 -76 -1 -87 -8z m124 -35 c54 -39 71 -181 28 -245 -42
-62 -132 -48 -163 26 -29 71 -11 198 33 224 27 16 75 13 102 -5z"/>
<path d="M4820 694 c-46 -20 -68 -41 -92 -88 -41 -80 -18 -185 51 -232 42 -28
134 -33 181 -9 41 21 74 65 59 79 -8 8 -13 7 -16 -2 -7 -19 -58 -42 -95 -42
-104 0 -170 136 -111 227 19 29 63 53 96 53 13 0 41 -11 61 -25 21 -14 42 -23
47 -20 16 11 10 54 -10 65 -29 15 -131 12 -171 -6z"/>
<path d="M5103 703 c-37 -5 -43 -22 -14 -40 17 -11 20 -27 23 -143 3 -124 4
-133 27 -151 32 -26 109 -25 161 1 l40 20 0 -26 c0 -24 2 -25 33 -19 57 13 99
30 98 40 -1 6 -9 10 -19 10 -39 1 -42 11 -42 167 l0 150 -52 -7 c-66 -9 -76
-18 -44 -39 25 -16 26 -20 26 -126 0 -105 -1 -109 -26 -129 -26 -21 -79 -28
-100 -13 -27 18 -34 56 -34 181 0 147 8 134 -77 124z"/>
<path d="M5554 676 c-60 -60 -55 -72 94 -206 26 -23 32 -35 26 -52 -9 -30 -22
-38 -61 -38 -32 0 -65 30 -78 71 -11 34 -25 20 -25 -25 0 -58 24 -76 98 -76
63 0 104 19 120 55 25 55 4 110 -55 146 -57 34 -83 60 -83 84 0 53 65 62 103
14 28 -36 50 -31 41 9 -11 45 -23 52 -86 52 -55 0 -63 -3 -94 -34z"/>
<path d="M6035 694 c-66 -34 -105 -97 -105 -169 0 -100 64 -167 167 -173 75
-5 112 8 153 54 81 92 56 234 -51 290 -37 19 -126 18 -164 -2z m139 -44 c57
-68 60 -190 6 -248 -30 -32 -93 -30 -124 3 -41 44 -56 126 -36 194 24 83 104
110 154 51z"/>
<path d="M9261 693 c-111 -55 -123 -260 -18 -323 65 -40 186 -17 217 40 20 37
2 41 -37 10 -73 -57 -192 25 -193 132 l0 27 118 3 117 3 3 28 c3 21 -5 36 -31
62 -31 31 -41 35 -88 35 -30 0 -69 -8 -88 -17z m123 -29 c22 -22 20 -41 -6
-48 -36 -9 -138 -7 -138 3 0 5 14 21 31 35 35 30 89 35 113 10z"/>
</g>
</svg>
