<?xml version="1.0" standalone="no"?>
<!DOCTYPE svg PUBLIC "-//W3C//DTD SVG 20010904//EN"
 "http://www.w3.org/TR/2001/REC-SVG-20010904/DTD/svg10.dtd">
<svg version="1.0" xmlns="http://www.w3.org/2000/svg"
 width="600.000000pt" height="81.000000pt" viewBox="0 0 600.000000 81.000000"
 preserveAspectRatio="xMidYMid meet">

<g transform="translate(0.000000,81.000000) scale(0.100000,-0.100000)"
fill="#b9b9b9" stroke="none">
<path d="M210 791 c-69 -21 -141 -83 -175 -151 -43 -84 -27 -217 36 -293 51
-62 110 -90 200 -95 70 -4 85 -2 132 22 29 14 64 37 77 51 l24 25 -39 40 -38
39 -32 -28 c-74 -64 -197 -44 -240 39 -8 16 -15 55 -15 89 0 50 4 65 26 91 36
42 74 60 129 60 50 0 77 -10 113 -43 l23 -21 36 36 c21 22 34 42 30 51 -8 22
-71 67 -114 83 -41 14 -133 17 -173 5z"/>
<path d="M3479 786 c-121 -43 -189 -138 -189 -261 0 -104 50 -190 142 -241 47
-26 63 -29 138 -29 75 0 91 3 132 27 119 71 167 195 128 333 -19 66 -95 145
-164 168 -58 20 -137 21 -187 3z m167 -115 c67 -41 93 -155 54 -232 -28 -54
-71 -79 -139 -79 -51 0 -57 3 -97 44 -63 66 -70 145 -18 224 39 59 138 81 200
43z"/>
<path d="M4031 787 c-81 -26 -124 -110 -101 -196 14 -55 60 -88 162 -117 105
-30 131 -60 88 -99 -30 -27 -105 -16 -163 23 l-46 31 -35 -42 c-41 -49 -38
-57 46 -102 74 -41 184 -46 248 -13 25 13 55 39 68 58 20 29 23 44 20 94 -4
55 -8 62 -46 97 -30 26 -61 42 -110 54 -37 10 -77 24 -89 32 -25 15 -30 52
-11 71 20 20 91 14 143 -13 37 -18 51 -21 57 -12 51 77 52 77 32 92 -62 47
-185 67 -263 42z"/>
<path d="M5029 787 c-88 -33 -149 -94 -177 -176 -15 -43 -14 -136 1 -178 39
-106 133 -173 252 -181 58 -4 80 0 123 18 58 25 125 92 149 148 20 48 21 166
1 213 -21 49 -72 105 -125 136 -55 32 -166 42 -224 20z m167 -116 c47 -28 77
-99 72 -166 -8 -99 -76 -153 -177 -142 -110 12 -164 160 -96 263 40 61 138 83
201 45z"/>
<path d="M592 523 l3 -268 58 -3 57 -3 0 271 0 270 -60 0 -60 0 2 -267z"/>
<path d="M790 735 l0 -55 75 0 75 0 0 -215 0 -216 58 3 57 3 3 213 2 212 75 0
75 0 0 55 0 55 -210 0 -210 0 0 -55z"/>
<path d="M1261 768 c7 -13 46 -81 88 -153 l76 -130 5 -115 5 -115 58 -3 57 -3
0 103 0 103 90 159 c50 87 90 163 90 168 0 5 -28 8 -62 6 l-62 -3 -51 -89
c-28 -48 -55 -88 -61 -89 -5 0 -32 40 -60 89 l-52 89 -66 3 -67 3 12 -23z"/>
<path d="M2802 524 l3 -269 150 0 c124 1 157 4 187 19 100 48 110 193 17 241
l-30 16 25 20 c49 39 54 132 9 181 -39 44 -72 52 -221 56 l-142 4 2 -268z
m256 144 c17 -17 15 -63 -3 -78 -8 -6 -41 -14 -75 -17 l-60 -6 0 57 0 56 63 0
c36 0 68 -5 75 -12z m2 -201 c29 -10 36 -18 38 -44 5 -46 -26 -63 -110 -63
l-68 0 0 60 0 60 53 -1 c28 0 68 -5 87 -12z"/>
<path d="M4380 735 l0 -55 75 0 75 0 0 -215 0 -215 60 0 60 0 0 215 0 215 75
0 75 0 0 55 0 55 -210 0 -210 0 0 -55z"/>
<path d="M5500 520 l0 -271 58 3 57 3 5 159 5 159 120 -159 120 -159 60 0 60
0 0 265 0 265 -60 0 -60 0 -5 -162 -5 -161 -125 164 -125 164 -52 0 -53 0 0
-270z"/>
<path d="M2415 746 c-13 -13 -27 -40 -30 -59 -5 -28 -14 -38 -36 -46 -33 -11
-40 -41 -9 -41 11 0 20 -3 20 -7 0 -5 -12 -66 -26 -138 -29 -144 -44 -178 -77
-173 -18 2 -22 -2 -22 -22 0 -21 5 -26 32 -28 72 -7 90 22 127 203 36 173 32
165 67 165 16 0 29 4 29 9 0 5 3 16 6 25 5 13 -1 16 -25 16 -35 0 -39 14 -15
49 12 16 23 22 41 18 16 -3 27 2 34 15 15 28 3 38 -47 38 -34 0 -51 -6 -69
-24z"/>
<path d="M2135 649 c-121 -35 -156 -240 -49 -285 99 -41 193 44 194 174 0 46
-4 58 -29 83 -16 16 -36 29 -44 29 -9 0 -21 2 -29 4 -7 2 -27 0 -43 -5z m62
-57 c30 -19 21 -124 -14 -164 -18 -21 -63 -24 -81 -6 -25 25 -10 122 25 160
17 19 49 23 70 10z"/>
<path d="M2787 133 c-4 -3 -7 -30 -7 -60 l0 -53 1610 0 1610 0 0 60 0 60
-1603 0 c-882 0 -1607 -3 -1610 -7z"/>
</g>
</svg>
