<?xml version="1.0" standalone="no"?>
<!DOCTYPE svg PUBLIC "-//W3C//DTD SVG 20010904//EN"
 "http://www.w3.org/TR/2001/REC-SVG-20010904/DTD/svg10.dtd">
<svg version="1.0" xmlns="http://www.w3.org/2000/svg"
 width="625.000000pt" height="625.000000pt" viewBox="0 0 625.000000 625.000000"
 preserveAspectRatio="xMidYMid meet">

<g transform="translate(0.000000,625.000000) scale(0.100000,-0.100000)"
fill="#b9b9b9" stroke="none">
<path d="M2780 6054 c-691 -83 -1311 -383 -1795 -869 -156 -156 -268 -293
-388 -475 -96 -147 -245 -438 -301 -590 -190 -521 -241 -1054 -151 -1585 144
-844 630 -1578 1353 -2042 186 -120 600 -313 670 -313 13 0 23 14 35 53 28 89
30 87 -91 131 -154 57 -417 191 -564 289 -685 455 -1127 1152 -1264 1994 -25
154 -30 525 -10 703 64 549 275 1061 616 1490 99 124 311 338 430 433 746 595
1717 794 2595 531 150 -45 140 -47 166 35 13 39 21 73 18 75 -3 3 -59 21 -125
40 -154 44 -345 82 -509 101 -162 19 -526 18 -685 -1z"/>
<path d="M3057 5633 c-4 -3 -7 -384 -7 -845 l0 -838 75 0 75 0 0 765 0 765 39
0 c22 0 41 5 43 12 5 14 183 -4 331 -33 480 -96 897 -319 1248 -668 121 -121
274 -299 265 -308 -2 -2 8 -16 23 -32 37 -41 164 -262 216 -377 l45 -99 55 -3
c30 -2 55 -1 55 2 0 9 -69 164 -103 231 -88 175 -245 405 -367 538 -28 31 -49
57 -46 57 4 0 -40 42 -96 94 -271 248 -453 366 -833 541 -41 19 -232 79 -330
104 -133 34 -372 71 -455 71 -60 0 -79 3 -84 15 -4 11 -22 15 -74 15 -38 0
-72 -3 -75 -7z"/>
<path d="M5004 5323 l7 -71 152 -154 c84 -84 183 -191 220 -238 74 -92 203
-278 214 -307 4 -10 18 -34 31 -53 63 -92 229 -461 216 -481 -3 -5 -1 -9 4 -9
15 0 85 -252 117 -420 60 -320 60 -755 0 -1080 -16 -85 -20 -103 -69 -280 -55
-196 -165 -456 -254 -604 -23 -37 -42 -70 -42 -72 0 -12 -142 -214 -150 -214
-6 0 -9 -4 -7 -9 4 -14 -121 -167 -225 -275 l-98 -101 0 -72 c0 -40 3 -73 8
-72 16 2 307 320 373 409 39 52 77 100 86 107 8 6 13 13 11 15 -2 3 141 238
152 248 11 10 130 269 168 365 62 157 125 367 157 520 26 130 55 427 55 575 0
729 -283 1462 -774 2007 -86 95 -272 273 -330 315 l-29 21 7 -70z"/>
<path d="M1975 5334 c-97 -49 -181 -98 -267 -156 -48 -32 -92 -58 -98 -58 -5
0 -10 -4 -10 -8 0 -5 -38 -39 -84 -75 -259 -206 -519 -524 -666 -817 -18 -36
-38 -68 -44 -72 -6 -4 -8 -8 -4 -8 4 0 -8 -36 -27 -81 -19 -44 -35 -83 -35
-85 0 -2 25 -4 55 -4 l56 0 26 63 c62 144 213 407 234 407 6 0 8 4 5 8 -6 10
141 202 154 202 6 0 10 6 10 14 0 22 246 254 362 341 58 44 153 108 210 143
99 60 105 65 141 133 22 39 37 72 35 74 -2 2 -26 -8 -53 -21z"/>
<path d="M2352 5118 l3 -143 38 -3 37 -3 0 145 0 146 -40 0 -41 0 3 -142z"/>
<path d="M2684 5241 c-50 -31 -68 -113 -41 -190 26 -74 135 -93 190 -31 24 27
27 38 27 103 0 41 -6 79 -13 87 -40 51 -109 64 -163 31z m87 -41 c16 -9 19
-22 19 -80 0 -59 -3 -71 -20 -80 -24 -13 -56 1 -65 29 -15 49 8 141 36 141 6
0 19 -5 30 -10z"/>
<path d="M3365 5117 l0 -142 43 -3 42 -3 0 145 0 146 -42 0 -43 0 0 -143z"/>
<path d="M3715 5235 c-22 -13 -37 -25 -33 -25 3 0 2 -16 -4 -36 -5 -20 -7 -62
-3 -94 6 -56 8 -58 52 -80 58 -29 107 -23 146 20 24 27 27 38 27 103 0 41 -6
79 -13 87 -42 55 -109 64 -172 25z m96 -35 c16 -9 19 -22 19 -80 0 -58 -3 -71
-19 -80 -25 -13 -50 -3 -61 25 -12 32 -6 110 9 129 16 19 25 20 52 6z"/>
<path d="M2108 5174 c-25 -13 -28 -20 -28 -68 0 -62 -14 -79 -62 -74 -30 3
-33 6 -36 40 l-3 36 -29 -16 c-37 -21 -38 -46 -4 -77 51 -47 126 -44 169 7 21
25 25 39 25 99 0 38 -1 69 -2 69 -2 -1 -15 -8 -30 -16z"/>
<path d="M4132 5073 l3 -98 38 -2 37 -3 0 83 0 83 -35 17 c-20 9 -38 17 -41
17 -2 0 -3 -44 -2 -97z"/>
<path d="M1690 4670 l0 -160 60 0 60 0 0 160 0 160 -60 0 -60 0 0 -160z"/>
<path d="M1990 4676 l0 -146 40 0 41 0 -3 143 -3 142 -37 3 -38 3 0 -145z"/>
<path d="M3375 4808 c-6 -21 -13 -239 -8 -259 4 -15 14 -19 44 -19 l39 0 0
145 0 145 -35 0 c-20 0 -37 -6 -40 -12z"/>
<path d="M4035 4808 c-3 -8 -4 -72 -3 -144 l3 -129 40 0 40 0 0 140 0 140 -38
3 c-24 2 -39 -1 -42 -10z"/>
<path d="M4680 4665 l0 -155 60 0 60 0 0 109 0 110 -47 45 c-27 25 -54 46 -60
46 -10 0 -13 -38 -13 -155z"/>
<path d="M2271 4776 c-31 -32 -32 -36 -29 -107 3 -80 11 -95 69 -124 42 -22
93 -12 131 25 26 26 28 34 28 102 -1 102 -32 138 -122 138 -37 0 -49 -6 -77
-34z m118 -30 c7 -9 11 -41 9 -83 -3 -66 -4 -68 -31 -71 -44 -5 -57 13 -57 79
0 39 5 63 16 73 19 20 48 21 63 2z"/>
<path d="M2684 4800 c-40 -16 -54 -49 -54 -130 0 -67 3 -79 23 -98 36 -34 80
-46 122 -32 56 19 75 51 75 132 0 38 -5 78 -10 89 -22 41 -102 61 -156 39z
m85 -54 c7 -9 11 -41 9 -83 l-3 -68 -35 0 c-32 0 -35 3 -43 40 -10 48 -3 105
15 117 20 12 44 10 57 -6z"/>
<path d="M3656 4779 c-23 -27 -26 -39 -26 -108 0 -71 2 -79 28 -103 49 -47
117 -45 170 4 19 19 22 32 22 95 0 41 -5 83 -10 94 -16 28 -63 49 -114 49 -37
0 -48 -5 -70 -31z m112 -28 c9 -5 12 -29 10 -82 l-3 -74 -35 0 -35 0 -3 74
c-3 76 3 91 38 91 8 0 21 -4 28 -9z"/>
<path d="M4318 4778 c-25 -29 -28 -41 -28 -106 0 -68 2 -76 28 -102 39 -38 89
-47 137 -24 49 23 69 69 63 147 -6 81 -35 109 -115 114 -55 3 -59 1 -85 -29z
m116 -34 c20 -19 22 -112 3 -138 -9 -12 -23 -17 -42 -14 -30 3 -30 4 -33 71
-3 72 7 97 39 97 9 0 25 -7 33 -16z"/>
<path d="M1482 4737 c-18 -19 -22 -35 -22 -86 0 -39 -4 -60 -10 -56 -5 3 -10
1 -10 -4 0 -18 -58 -13 -69 7 -9 16 -11 16 -25 -3 -8 -11 -16 -24 -16 -28 0
-10 63 -37 86 -37 31 0 85 33 99 61 22 42 19 169 -4 169 -4 0 -17 -10 -29 -23z"/>
<path d="M1970 4225 l0 -165 60 0 60 0 0 165 0 165 -60 0 -60 0 0 -165z"/>
<path d="M4015 4378 c-3 -8 -4 -81 -3 -163 l3 -150 60 0 60 0 0 160 0 160 -58
3 c-41 2 -59 -1 -62 -10z"/>
<path d="M1430 4225 l0 -145 40 0 40 0 0 145 0 145 -40 0 -40 0 0 -145z"/>
<path d="M1710 4226 l0 -146 40 0 41 0 -3 143 -3 142 -37 3 -38 3 0 -145z"/>
<path d="M2315 4356 c-56 -25 -70 -50 -70 -131 0 -81 14 -107 72 -131 42 -18
86 -8 123 26 28 26 30 33 30 100 0 39 -4 79 -10 89 -23 44 -97 68 -145 47z
m83 -128 c3 -77 3 -77 -24 -84 -43 -11 -59 6 -62 69 -4 74 9 99 51 95 l32 -3
3 -77z"/>
<path d="M2706 4360 c-16 -5 -39 -19 -52 -31 -21 -20 -24 -31 -24 -104 0 -72
3 -84 23 -103 36 -33 73 -44 117 -32 61 16 80 49 80 137 0 69 -2 77 -29 104
-16 16 -36 29 -44 29 -9 0 -21 2 -29 4 -7 2 -26 0 -42 -4z m72 -115 c4 -82 -3
-105 -32 -105 -41 0 -52 21 -49 90 3 68 12 82 53 78 23 -3 25 -7 28 -63z"/>
<path d="M3369 4368 c-1 -5 -1 -233 0 -260 1 -26 4 -28 41 -28 l40 0 0 145 0
145 -40 0 c-22 0 -40 -1 -41 -2z"/>
<path d="M3706 4359 c-16 -4 -39 -18 -52 -30 -21 -20 -24 -31 -24 -99 0 -87
13 -114 67 -136 44 -19 104 -4 132 33 17 20 21 40 21 92 0 36 -3 75 -6 87 -10
39 -86 68 -138 53z m72 -131 c3 -69 1 -77 -18 -83 -41 -13 -60 3 -62 53 -3 98
5 114 52 110 24 -3 25 -6 28 -80z"/>
<path d="M4373 4363 c-12 -2 -36 -17 -53 -33 -28 -27 -30 -32 -30 -105 0 -72
2 -79 30 -105 37 -34 81 -44 123 -26 57 24 72 50 71 125 0 73 -5 110 -14 108
-3 -1 -16 6 -30 15 -29 19 -66 27 -97 21z m67 -72 c5 -11 10 -41 10 -66 0 -55
-14 -85 -40 -85 -44 0 -50 9 -50 79 0 39 5 72 12 79 18 18 56 14 68 -7z"/>
<path d="M4700 4225 l0 -146 38 3 37 3 0 140 0 140 -37 3 -38 3 0 -146z"/>
<path d="M1153 4342 c-9 -15 -7 -21 8 -30 16 -10 19 -24 19 -91 0 -82 -5 -91
-48 -91 -28 0 -44 16 -51 51 l-7 34 -17 -32 c-26 -49 -22 -62 28 -84 56 -25
100 -14 141 34 24 28 26 37 22 100 -3 63 -7 72 -36 98 -38 34 -43 35 -59 11z"/>
<path d="M5024 4341 c-18 -11 -35 -24 -39 -30 -3 -6 -11 -9 -16 -5 -5 3 -9 2
-8 -3 1 -4 -3 -21 -9 -36 -7 -16 -12 -34 -12 -40 0 -14 29 -96 30 -84 0 5 14
-3 30 -17 55 -45 149 -56 195 -22 14 10 15 16 4 38 -9 22 -15 25 -30 18 -23
-13 -99 -13 -99 0 0 6 -5 9 -12 8 -6 -2 -18 9 -27 24 -26 45 -7 78 67 115 6 2
-30 53 -37 53 -3 0 -20 -9 -37 -19z"/>
<path d="M686 3823 c-9 -26 -16 -50 -16 -55 0 -4 1107 -8 2460 -8 1353 0 2460
4 2460 8 0 5 -7 29 -16 55 l-16 47 -2428 0 -2428 0 -16 -47z"/>
<path d="M850 3556 c-55 -15 -84 -30 -131 -67 -44 -35 -90 -116 -72 -127 9 -6
8 -12 -6 -24 -15 -13 -19 -30 -20 -78 0 -58 1 -62 21 -57 18 5 19 2 14 -29 -5
-25 -3 -34 6 -34 8 0 15 -12 16 -27 5 -60 99 -115 272 -158 127 -31 206 -67
213 -96 4 -15 11 -20 21 -16 12 5 16 -1 16 -24 0 -19 -4 -28 -11 -23 -6 3 -24
-10 -40 -30 -72 -86 -242 -69 -390 40 -49 36 -79 39 -79 9 0 -8 -7 -15 -15
-15 -8 0 -15 -4 -15 -8 0 -4 -16 -25 -35 -46 -19 -21 -35 -44 -35 -51 0 -19
86 -79 162 -115 131 -61 311 -76 433 -35 57 19 143 77 152 103 4 9 16 29 27
45 16 22 21 47 24 121 4 84 2 99 -19 141 -48 96 -122 141 -309 190 -58 15
-126 38 -151 51 -83 41 -87 109 -9 162 30 21 44 23 101 19 67 -4 195 -53 220
-83 6 -8 19 -14 28 -14 20 0 111 122 111 148 0 35 -119 103 -222 127 -75 18
-216 18 -278 1z"/>
<path d="M3410 3051 l0 -511 103 0 102 0 -4 170 -3 170 98 0 99 0 39 -60 c21
-33 42 -60 47 -60 5 0 9 -5 9 -10 0 -6 5 -16 10 -23 6 -7 38 -51 71 -99 l60
-88 120 0 c104 0 119 2 119 17 0 16 -47 85 -62 91 -4 2 -8 8 -8 13 0 10 -143
213 -166 237 -13 13 -9 17 34 37 27 12 66 40 87 61 42 43 80 117 71 140 -3 8
0 14 6 14 8 0 9 28 4 97 -6 81 -12 106 -35 148 -34 60 -90 105 -168 136 -54
21 -76 23 -345 27 l-288 4 0 -511z m538 294 c20 -9 53 -33 72 -54 29 -30 34
-43 32 -73 -2 -20 -10 -42 -18 -48 -8 -7 -14 -18 -14 -24 0 -13 -53 -50 -93
-65 -16 -6 -93 -11 -173 -11 l-144 0 0 145 0 145 150 0 c113 0 160 -4 188 -15z"/>
<path d="M4410 3050 l0 -510 103 0 103 0 -4 134 -4 134 46 50 c25 27 46 52 46
56 0 11 22 31 42 38 11 5 22 -2 35 -19 10 -14 81 -108 157 -209 l139 -184 124
0 c98 0 123 3 123 14 0 15 -245 339 -261 344 -5 2 -9 10 -9 17 0 8 -9 20 -21
28 -11 8 -28 28 -37 45 -17 30 -54 80 -81 109 -12 13 0 29 97 126 62 62 112
118 112 125 0 6 4 12 9 12 5 0 11 9 14 20 3 11 16 24 29 29 30 12 128 115 128
135 0 14 -17 16 -118 16 l-119 0 -100 -102 c-55 -57 -154 -160 -219 -230 -92
-98 -121 -123 -127 -112 -5 9 -7 112 -5 230 l3 214 -102 0 -103 0 0 -510z"/>
<path d="M5399 3553 c-2 -14 3 -688 5 -690 8 -9 124 -14 170 -9 l56 7 0 350 0
349 -115 0 c-63 0 -116 -3 -116 -7z m18 -45 c-3 -8 -6 -5 -6 6 -1 11 2 17 5
13 3 -3 4 -12 1 -19z"/>
<path d="M1530 3050 l0 -500 95 0 95 0 0 154 0 153 148 6 c165 6 220 19 300
72 101 68 148 169 140 299 -6 85 -36 154 -90 208 -88 88 -174 108 -470 108
l-218 0 0 -500z m488 305 c36 -15 108 -82 98 -92 -3 -3 -1 -15 4 -28 10 -26
-4 -91 -25 -115 -8 -8 -14 -18 -14 -23 0 -13 -20 -43 -21 -31 0 7 -17 3 -42
-9 -35 -18 -66 -22 -170 -25 l-128 -4 0 171 0 171 130 0 c95 0 141 -4 168 -15z"/>
<path d="M2681 3513 c-10 -21 -19 -41 -20 -45 -2 -10 -58 -138 -71 -160 -7
-12 -7 -18 0 -18 5 0 1 -9 -11 -21 -11 -11 -18 -27 -15 -35 3 -8 1 -14 -5 -14
-6 0 -8 -7 -5 -16 3 -8 2 -12 -4 -9 -6 3 -10 2 -10 -3 0 -6 -18 -49 -40 -96
-22 -47 -40 -90 -40 -96 0 -5 -4 -10 -8 -10 -4 0 -14 -20 -21 -44 -7 -25 -16
-46 -19 -48 -13 -6 -41 -99 -35 -115 4 -10 2 -14 -4 -10 -5 3 -15 -4 -21 -16
-46 -97 -82 -180 -82 -192 0 -12 18 -15 94 -15 l93 0 31 68 c17 37 40 88 51
115 l20 47 228 0 229 0 13 -32 c8 -18 14 -35 15 -38 1 -3 6 -16 10 -30 4 -14
19 -49 33 -77 l25 -53 99 0 c55 0 99 1 99 3 0 4 -28 69 -178 412 -201 462
-240 547 -244 539 -3 -5 -3 -3 -2 4 9 35 -7 42 -97 42 l-89 0 -19 -37z m124
-248 c64 -145 78 -182 78 -195 0 -8 3 -17 7 -20 11 -8 52 -91 47 -96 -2 -3
-72 -3 -155 -2 l-151 3 50 118 c27 65 46 123 43 129 -4 6 -3 8 4 4 6 -4 20 18
34 54 12 33 25 54 27 48 2 -7 9 -26 16 -43z"/>
<path d="M5407 2763 c-4 -3 -7 -55 -7 -115 l0 -108 115 0 115 0 0 115 0 115
-108 0 c-60 0 -112 -3 -115 -7z"/>
<path d="M724 2326 c-3 -7 -4 -33 -2 -57 l3 -44 2417 -3 2416 -2 16 47 c9 26
16 53 16 60 0 20 -4858 19 -4866 -1z"/>
<path d="M5393 2138 c-4 -7 -28 -58 -53 -113 -53 -114 -109 -213 -190 -335
-395 -589 -1039 -982 -1746 -1065 -71 -8 -148 -15 -171 -15 -24 0 -43 -5 -46
-12 -3 -7 -6 335 -6 760 l-1 773 -52 -3 -53 -3 -3 -822 -2 -823 55 0 c35 0 55
-4 55 -12 0 -8 31 -9 113 -5 524 28 1049 233 1472 574 186 150 408 397 537
598 112 173 256 470 244 501 -7 19 -141 20 -153 2z"/>
<path d="M2330 1870 l0 -160 25 -6 c14 -3 41 -3 60 0 l35 7 0 159 0 160 -60 0
-60 0 0 -160z"/>
<path d="M3730 2019 c-14 -6 -35 -20 -47 -31 -21 -20 -23 -31 -23 -120 0 -91
2 -101 24 -123 57 -57 192 -48 226 15 17 32 13 192 -6 219 -31 44 -115 63
-174 40z m79 -93 c7 -8 11 -37 9 -68 -3 -49 -5 -53 -28 -53 -23 0 -25 4 -28
53 -3 49 8 82 28 82 4 0 13 -6 19 -14z"/>
<path d="M4484 2016 c-53 -23 -64 -50 -64 -149 0 -99 7 -120 50 -142 61 -32
175 -12 200 34 17 33 13 193 -6 220 -33 46 -118 64 -180 37z m85 -90 c7 -8 11
-37 9 -68 -3 -49 -5 -53 -28 -53 -23 0 -25 4 -28 53 -3 49 8 82 28 82 4 0 13
-6 19 -14z"/>
<path d="M1209 1987 c-48 -32 -60 -61 -56 -135 2 -51 8 -67 28 -87 35 -36 77
-45 124 -29 59 20 75 47 75 129 0 81 -14 109 -66 131 -46 19 -66 18 -105 -9z
m99 -110 c3 -72 -7 -97 -39 -97 -33 0 -49 28 -49 89 0 65 12 83 55 79 30 -3
30 -3 33 -71z"/>
<path d="M1610 1983 c-1 -16 -2 -79 -3 -140 -2 -122 -2 -123 54 -123 l29 0 0
145 0 145 -40 0 c-37 0 -40 -2 -40 -27z"/>
<path d="M1985 1995 c-16 -8 -37 -20 -46 -27 -21 -18 -32 -78 -24 -142 6 -44
11 -55 41 -74 39 -26 92 -28 134 -7 41 21 50 43 50 122 0 79 -15 108 -66 129
-41 17 -51 17 -89 -1z m69 -51 c12 -5 16 -21 16 -73 0 -67 -10 -91 -39 -91
-31 0 -51 32 -51 82 0 77 23 102 74 82z"/>
<path d="M2705 1996 c-46 -21 -67 -51 -73 -105 -9 -96 37 -161 113 -161 43 0
90 22 105 49 5 11 10 50 10 88 0 79 -15 108 -66 129 -40 17 -51 17 -89 0z m83
-119 c3 -71 -7 -97 -36 -97 -34 0 -52 31 -52 90 0 64 12 82 55 78 30 -3 30 -3
33 -71z"/>
<path d="M3370 1983 c-1 -16 -2 -79 -3 -140 -2 -122 -2 -123 54 -123 l29 0 0
145 0 145 -40 0 c-37 0 -40 -2 -40 -27z"/>
<path d="M4132 1868 l3 -143 38 -3 37 -3 0 145 0 146 -40 0 -41 0 3 -142z"/>
<path d="M4940 1999 c-57 -23 -70 -47 -70 -126 0 -85 9 -107 50 -128 48 -25
103 -19 139 14 30 28 31 33 31 108 0 87 -12 109 -73 132 -34 13 -44 13 -77 0z
m75 -58 c5 -9 8 -78 6 -128 -1 -24 -30 -38 -61 -28 -18 6 -20 15 -20 79 0 40
3 76 7 79 10 10 61 8 68 -2z"/>
<path d="M1690 1420 l0 -160 60 0 60 0 0 160 0 160 -60 0 -60 0 0 -160z"/>
<path d="M1365 1548 c-11 -6 -21 -12 -23 -14 -2 -1 2 -11 9 -23 10 -14 17 -17
25 -10 7 6 28 9 46 7 33 -3 33 -4 36 -58 2 -43 9 -61 29 -82 14 -15 30 -25 35
-22 14 9 9 123 -8 155 -25 48 -103 73 -149 47z"/>
<path d="M1990 1420 l0 -140 40 0 40 0 0 140 0 140 -40 0 -40 0 0 -140z"/>
<path d="M2305 1545 c-49 -26 -65 -54 -64 -115 1 -78 10 -102 49 -128 48 -33
119 -26 155 15 21 24 24 38 25 100 0 65 -3 76 -27 103 -35 39 -93 49 -138 25z
m76 -45 c16 -9 19 -22 19 -78 0 -70 -10 -92 -41 -92 -34 0 -49 28 -49 90 0 49
4 61 22 74 27 19 24 19 49 6z"/>
<path d="M2686 1545 c-47 -25 -55 -44 -56 -123 0 -97 17 -129 77 -138 56 -8
89 1 119 33 21 23 24 35 24 103 0 67 -3 79 -22 97 -50 45 -92 54 -142 28z m75
-45 c16 -9 19 -22 19 -78 0 -70 -10 -92 -41 -92 -28 0 -41 27 -42 91 -1 50 2
63 18 75 23 17 21 17 46 4z"/>
<path d="M3365 1420 l0 -140 43 0 42 0 0 140 0 140 -42 0 -43 0 0 -140z"/>
<path d="M3700 1553 c-8 -3 -27 -17 -42 -31 -26 -24 -28 -32 -28 -100 0 -84 9
-106 50 -127 54 -28 136 -11 160 34 12 23 12 158 0 186 -5 11 -9 16 -9 11 -1
-5 -10 -1 -20 8 -20 18 -85 30 -111 19z m78 -129 c3 -83 -10 -105 -53 -86 -23
11 -25 17 -25 80 0 38 3 72 7 76 4 4 21 6 38 4 l30 -3 3 -71z"/>
<path d="M4030 1421 l0 -141 45 0 46 0 -3 138 -3 137 -42 3 -43 3 0 -140z"/>
<path d="M4349 1547 c-41 -16 -59 -56 -59 -132 0 -63 2 -69 35 -102 31 -31 40
-35 78 -31 63 7 70 10 94 48 28 42 31 126 7 171 -25 50 -95 70 -155 46z m81
-57 c15 -15 20 -33 20 -74 0 -57 -16 -86 -49 -86 -31 0 -41 22 -41 92 0 53 4
69 18 77 24 15 29 14 52 -9z"/>
<path d="M4700 1444 l0 -115 34 26 c43 33 46 41 46 131 l0 74 -40 0 -40 0 0
-116z"/>
<path d="M2274 1111 c-17 -10 -36 -34 -43 -52 -15 -44 -14 -143 3 -183 34 -80
187 -90 240 -14 12 16 16 47 16 110 0 82 -2 90 -29 120 -25 28 -35 32 -92 35
-51 3 -71 0 -95 -16z m110 -87 c12 -30 6 -101 -9 -114 -29 -24 -45 -4 -45 58
0 32 3 62 7 65 12 13 41 7 47 -9z"/>
<path d="M3658 1114 c-41 -22 -48 -43 -48 -146 0 -92 1 -95 31 -124 27 -26 37
-29 99 -29 62 0 72 3 99 29 30 29 31 32 31 127 l0 97 -35 31 c-31 27 -43 31
-93 31 -31 -1 -69 -7 -84 -16z m110 -135 c3 -59 -13 -87 -43 -75 -11 4 -15 21
-15 64 0 65 5 74 35 70 17 -3 20 -11 23 -59z"/>
<path d="M1990 1052 c0 -57 1 -59 35 -75 20 -9 38 -17 40 -17 3 0 5 34 5 75
l0 75 -40 0 -40 0 0 -58z"/>
<path d="M2678 1094 c-40 -21 -48 -43 -48 -129 0 -69 2 -78 26 -100 49 -46
116 -44 167 3 25 24 27 32 27 103 0 76 -1 77 -35 108 -40 35 -91 41 -137 15z
m86 -47 c14 -10 16 -25 14 -82 -3 -69 -3 -70 -32 -73 -40 -5 -46 5 -47 76 -2
82 21 111 65 79z"/>
<path d="M3370 1108 c-1 -2 -2 -64 -3 -138 l-2 -135 43 -3 42 -3 0 140 0 141
-40 0 c-22 0 -40 -1 -40 -2z"/>
<path d="M4030 1000 l0 -109 43 19 42 19 3 90 3 91 -46 0 -45 0 0 -110z"/>
<path d="M4354 1100 c-22 -9 -64 -56 -64 -72 0 -8 102 52 125 73 12 11 -32 11
-61 -1z"/>
</g>
</svg>
